<svg width="370" height="103" viewBox="0 0 370 103" fill="none" xmlns="http://www.w3.org/2000/svg">
<rect width="370" height="103" fill="#08D9D6"/>
<path d="M40.856 55.592H33.872L32.672 59H29.816L35.792 42.296H38.96L44.936 59H42.056L40.856 55.592ZM40.088 53.36L37.376 45.608L34.64 53.36H40.088ZM48.6384 59.168C48.1424 59.168 47.7264 59 47.3904 58.664C47.0544 58.328 46.8864 57.912 46.8864 57.416C46.8864 56.92 47.0544 56.504 47.3904 56.168C47.7264 55.832 48.1424 55.664 48.6384 55.664C49.1184 55.664 49.5264 55.832 49.8624 56.168C50.1984 56.504 50.3664 56.92 50.3664 57.416C50.3664 57.912 50.1984 58.328 49.8624 58.664C49.5264 59 49.1184 59.168 48.6384 59.168ZM56.0594 42.32V59H53.3234V42.32H56.0594ZM60.7556 59.168C60.2596 59.168 59.8436 59 59.5076 58.664C59.1716 58.328 59.0036 57.912 59.0036 57.416C59.0036 56.92 59.1716 56.504 59.5076 56.168C59.8436 55.832 60.2596 55.664 60.7556 55.664C61.2356 55.664 61.6436 55.832 61.9796 56.168C62.3156 56.504 62.4836 56.92 62.4836 57.416C62.4836 57.912 62.3156 58.328 61.9796 58.664C61.6436 59 61.2356 59.168 60.7556 59.168ZM33.536 73.528V78.424H39.296V80.656H33.536V85.768H40.016V88H30.8V71.296H40.016V73.528H33.536ZM49.0499 81.304L53.3219 88H50.2259L47.3699 83.512L44.6819 88H41.8259L46.0979 81.496L41.8259 74.776H44.9219L47.7779 79.264L50.4659 74.776H53.3219L49.0499 81.304ZM58.0985 76.72C58.5625 76.112 59.1945 75.6 59.9945 75.184C60.7945 74.768 61.6985 74.56 62.7065 74.56C63.8585 74.56 64.9065 74.848 65.8505 75.424C66.8105 75.984 67.5625 76.776 68.1065 77.8C68.6505 78.824 68.9225 80 68.9225 81.328C68.9225 82.656 68.6505 83.848 68.1065 84.904C67.5625 85.944 66.8105 86.76 65.8505 87.352C64.9065 87.928 63.8585 88.216 62.7065 88.216C61.6985 88.216 60.8025 88.016 60.0185 87.616C59.2345 87.2 58.5945 86.688 58.0985 86.08V94.288H55.3625V74.776H58.0985V76.72ZM66.1385 81.328C66.1385 80.416 65.9465 79.632 65.5625 78.976C65.1945 78.304 64.6985 77.8 64.0745 77.464C63.4665 77.112 62.8105 76.936 62.1065 76.936C61.4185 76.936 60.7625 77.112 60.1385 77.464C59.5305 77.816 59.0345 78.328 58.6505 79C58.2825 79.672 58.0985 80.464 58.0985 81.376C58.0985 82.288 58.2825 83.088 58.6505 83.776C59.0345 84.448 59.5305 84.96 60.1385 85.312C60.7625 85.664 61.4185 85.84 62.1065 85.84C62.8105 85.84 63.4665 85.664 64.0745 85.312C64.6985 84.944 65.1945 84.416 65.5625 83.728C65.9465 83.04 66.1385 82.24 66.1385 81.328ZM83.7481 81.064C83.7481 81.56 83.7161 82.008 83.6521 82.408H73.5481C73.6281 83.464 74.0201 84.312 74.7241 84.952C75.4281 85.592 76.2921 85.912 77.3161 85.912C78.7881 85.912 79.8281 85.296 80.4361 84.064H83.3881C82.9881 85.28 82.2601 86.28 81.2041 87.064C80.1641 87.832 78.8681 88.216 77.3161 88.216C76.0521 88.216 74.9161 87.936 73.9081 87.376C72.9161 86.8 72.1321 86 71.5561 84.976C70.9961 83.936 70.7161 82.736 70.7161 81.376C70.7161 80.016 70.9881 78.824 71.5321 77.8C72.0921 76.76 72.8681 75.96 73.8601 75.4C74.8681 74.84 76.0201 74.56 77.3161 74.56C78.5641 74.56 79.6761 74.832 80.6521 75.376C81.6281 75.92 82.3881 76.688 82.9321 77.68C83.4761 78.656 83.7481 79.784 83.7481 81.064ZM80.8921 80.2C80.8761 79.192 80.5161 78.384 79.8121 77.776C79.1081 77.168 78.2361 76.864 77.1961 76.864C76.2521 76.864 75.4441 77.168 74.7721 77.776C74.1001 78.368 73.7001 79.176 73.5721 80.2H80.8921ZM89.1766 76.696C89.5766 76.024 90.1046 75.504 90.7606 75.136C91.4326 74.752 92.2246 74.56 93.1366 74.56V77.392H92.4406C91.3686 77.392 90.5526 77.664 89.9926 78.208C89.4486 78.752 89.1766 79.696 89.1766 81.04V88H86.4406V74.776H89.1766V76.696ZM97.0436 73.024C96.5476 73.024 96.1316 72.856 95.7956 72.52C95.4596 72.184 95.2916 71.768 95.2916 71.272C95.2916 70.776 95.4596 70.36 95.7956 70.024C96.1316 69.688 96.5476 69.52 97.0436 69.52C97.5236 69.52 97.9316 69.688 98.2676 70.024C98.6036 70.36 98.7716 70.776 98.7716 71.272C98.7716 71.768 98.6036 72.184 98.2676 72.52C97.9316 72.856 97.5236 73.024 97.0436 73.024ZM98.3876 74.776V88H95.6516V74.776H98.3876ZM117.988 74.56C119.028 74.56 119.956 74.776 120.772 75.208C121.604 75.64 122.252 76.28 122.716 77.128C123.196 77.976 123.436 79 123.436 80.2V88H120.724V80.608C120.724 79.424 120.428 78.52 119.836 77.896C119.244 77.256 118.436 76.936 117.412 76.936C116.388 76.936 115.572 77.256 114.964 77.896C114.372 78.52 114.076 79.424 114.076 80.608V88H111.364V80.608C111.364 79.424 111.068 78.52 110.476 77.896C109.884 77.256 109.076 76.936 108.052 76.936C107.028 76.936 106.212 77.256 105.604 77.896C105.012 78.52 104.716 79.424 104.716 80.608V88H101.98V74.776H104.716V76.288C105.164 75.744 105.732 75.32 106.42 75.016C107.108 74.712 107.844 74.56 108.628 74.56C109.684 74.56 110.628 74.784 111.46 75.232C112.292 75.68 112.932 76.328 113.38 77.176C113.78 76.376 114.404 75.744 115.252 75.28C116.1 74.8 117.012 74.56 117.988 74.56ZM139.037 81.064C139.037 81.56 139.005 82.008 138.941 82.408H128.837C128.917 83.464 129.309 84.312 130.013 84.952C130.717 85.592 131.581 85.912 132.605 85.912C134.077 85.912 135.117 85.296 135.725 84.064H138.677C138.277 85.28 137.549 86.28 136.493 87.064C135.453 87.832 134.157 88.216 132.605 88.216C131.341 88.216 130.205 87.936 129.197 87.376C128.205 86.8 127.421 86 126.845 84.976C126.285 83.936 126.005 82.736 126.005 81.376C126.005 80.016 126.277 78.824 126.821 77.8C127.381 76.76 128.157 75.96 129.149 75.4C130.157 74.84 131.309 74.56 132.605 74.56C133.853 74.56 134.965 74.832 135.941 75.376C136.917 75.92 137.677 76.688 138.221 77.68C138.765 78.656 139.037 79.784 139.037 81.064ZM136.181 80.2C136.165 79.192 135.805 78.384 135.101 77.776C134.397 77.168 133.525 76.864 132.485 76.864C131.541 76.864 130.733 77.168 130.061 77.776C129.389 78.368 128.989 79.176 128.861 80.2H136.181ZM148.402 74.56C149.442 74.56 150.37 74.776 151.186 75.208C152.018 75.64 152.666 76.28 153.13 77.128C153.594 77.976 153.826 79 153.826 80.2V88H151.114V80.608C151.114 79.424 150.818 78.52 150.226 77.896C149.634 77.256 148.826 76.936 147.802 76.936C146.778 76.936 145.962 77.256 145.354 77.896C144.762 78.52 144.466 79.424 144.466 80.608V88H141.73V74.776H144.466V76.288C144.914 75.744 145.482 75.32 146.17 75.016C146.874 74.712 147.618 74.56 148.402 74.56ZM160.508 77.008V84.328C160.508 84.824 160.62 85.184 160.844 85.408C161.084 85.616 161.484 85.72 162.044 85.72H163.724V88H161.564C160.332 88 159.388 87.712 158.732 87.136C158.076 86.56 157.748 85.624 157.748 84.328V77.008H156.188V74.776H157.748V71.488H160.508V74.776H163.724V77.008H160.508Z" fill="#252A34"/>
<path d="M208.888 79.624C208.888 77.992 209.264 76.528 210.016 75.232C210.784 73.936 211.816 72.928 213.112 72.208C214.424 71.472 215.856 71.104 217.408 71.104C219.184 71.104 220.76 71.544 222.136 72.424C223.528 73.288 224.536 74.52 225.16 76.12H221.872C221.44 75.24 220.84 74.584 220.072 74.152C219.304 73.72 218.416 73.504 217.408 73.504C216.304 73.504 215.32 73.752 214.456 74.248C213.592 74.744 212.912 75.456 212.416 76.384C211.936 77.312 211.696 78.392 211.696 79.624C211.696 80.856 211.936 81.936 212.416 82.864C212.912 83.792 213.592 84.512 214.456 85.024C215.32 85.52 216.304 85.768 217.408 85.768C218.416 85.768 219.304 85.552 220.072 85.12C220.84 84.688 221.44 84.032 221.872 83.152H225.16C224.536 84.752 223.528 85.984 222.136 86.848C220.76 87.712 219.184 88.144 217.408 88.144C215.84 88.144 214.408 87.784 213.112 87.064C211.816 86.328 210.784 85.312 210.016 84.016C209.264 82.72 208.888 81.256 208.888 79.624ZM227.451 81.328C227.451 80 227.723 78.824 228.267 77.8C228.827 76.776 229.579 75.984 230.523 75.424C231.483 74.848 232.539 74.56 233.691 74.56C234.731 74.56 235.635 74.768 236.403 75.184C237.187 75.584 237.811 76.088 238.275 76.696V74.776H241.035V88H238.275V86.032C237.811 86.656 237.179 87.176 236.379 87.592C235.579 88.008 234.667 88.216 233.643 88.216C232.507 88.216 231.467 87.928 230.523 87.352C229.579 86.76 228.827 85.944 228.267 84.904C227.723 83.848 227.451 82.656 227.451 81.328ZM238.275 81.376C238.275 80.464 238.083 79.672 237.699 79C237.331 78.328 236.843 77.816 236.235 77.464C235.627 77.112 234.971 76.936 234.267 76.936C233.563 76.936 232.907 77.112 232.299 77.464C231.691 77.8 231.195 78.304 230.811 78.976C230.443 79.632 230.259 80.416 230.259 81.328C230.259 82.24 230.443 83.04 230.811 83.728C231.195 84.416 231.691 84.944 232.299 85.312C232.923 85.664 233.579 85.84 234.267 85.84C234.971 85.84 235.627 85.664 236.235 85.312C236.843 84.96 237.331 84.448 237.699 83.776C238.083 83.088 238.275 82.288 238.275 81.376ZM247.364 76.696C247.764 76.024 248.292 75.504 248.948 75.136C249.62 74.752 250.412 74.56 251.324 74.56V77.392H250.628C249.556 77.392 248.74 77.664 248.18 78.208C247.636 78.752 247.364 79.696 247.364 81.04V88H244.628V74.776H247.364V76.696ZM252.927 81.328C252.927 80 253.199 78.824 253.743 77.8C254.303 76.776 255.055 75.984 255.999 75.424C256.959 74.848 258.023 74.56 259.191 74.56C260.055 74.56 260.903 74.752 261.735 75.136C262.583 75.504 263.255 76 263.751 76.624V70.24H266.511V88H263.751V86.008C263.303 86.648 262.679 87.176 261.879 87.592C261.095 88.008 260.191 88.216 259.167 88.216C258.015 88.216 256.959 87.928 255.999 87.352C255.055 86.76 254.303 85.944 253.743 84.904C253.199 83.848 252.927 82.656 252.927 81.328ZM263.751 81.376C263.751 80.464 263.559 79.672 263.175 79C262.807 78.328 262.319 77.816 261.711 77.464C261.103 77.112 260.447 76.936 259.743 76.936C259.039 76.936 258.383 77.112 257.775 77.464C257.167 77.8 256.671 78.304 256.287 78.976C255.919 79.632 255.735 80.416 255.735 81.328C255.735 82.24 255.919 83.04 256.287 83.728C256.671 84.416 257.167 84.944 257.775 85.312C258.399 85.664 259.055 85.84 259.743 85.84C260.447 85.84 261.103 85.664 261.711 85.312C262.319 84.96 262.807 84.448 263.175 83.776C263.559 83.088 263.751 82.288 263.751 81.376ZM271.497 73.024C271.001 73.024 270.585 72.856 270.249 72.52C269.913 72.184 269.745 71.768 269.745 71.272C269.745 70.776 269.913 70.36 270.249 70.024C270.585 69.688 271.001 69.52 271.497 69.52C271.977 69.52 272.385 69.688 272.721 70.024C273.057 70.36 273.225 70.776 273.225 71.272C273.225 71.768 273.057 72.184 272.721 72.52C272.385 72.856 271.977 73.024 271.497 73.024ZM272.841 74.776V88H270.105V74.776H272.841ZM281.977 77.008H279.529V88H276.769V77.008H275.209V74.776H276.769V73.84C276.769 72.32 277.169 71.216 277.969 70.528C278.785 69.824 280.057 69.472 281.785 69.472V71.752C280.953 71.752 280.369 71.912 280.033 72.232C279.697 72.536 279.529 73.072 279.529 73.84V74.776H281.977V77.008ZM289.946 77.008H287.498V88H284.738V77.008H283.178V74.776H284.738V73.84C284.738 72.32 285.138 71.216 285.938 70.528C286.754 69.824 288.026 69.472 289.754 69.472V71.752C288.922 71.752 288.338 71.912 288.002 72.232C287.666 72.536 287.498 73.072 287.498 73.84V74.776H289.946V77.008ZM316.173 71.32V88H313.437V76.576L308.349 88H306.453L301.341 76.576V88H298.605V71.32H301.557L307.413 84.4L313.245 71.32H316.173ZM331.889 81.064C331.889 81.56 331.857 82.008 331.793 82.408H321.689C321.769 83.464 322.161 84.312 322.865 84.952C323.569 85.592 324.433 85.912 325.457 85.912C326.929 85.912 327.969 85.296 328.577 84.064H331.529C331.129 85.28 330.401 86.28 329.345 87.064C328.305 87.832 327.009 88.216 325.457 88.216C324.193 88.216 323.057 87.936 322.049 87.376C321.057 86.8 320.273 86 319.697 84.976C319.137 83.936 318.857 82.736 318.857 81.376C318.857 80.016 319.129 78.824 319.673 77.8C320.233 76.76 321.009 75.96 322.001 75.4C323.009 74.84 324.161 74.56 325.457 74.56C326.705 74.56 327.817 74.832 328.793 75.376C329.769 75.92 330.529 76.688 331.073 77.68C331.617 78.656 331.889 79.784 331.889 81.064ZM329.033 80.2C329.017 79.192 328.657 78.384 327.953 77.776C327.249 77.168 326.377 76.864 325.337 76.864C324.393 76.864 323.585 77.168 322.913 77.776C322.241 78.368 321.841 79.176 321.713 80.2H329.033ZM337.773 77.008V84.328C337.773 84.824 337.885 85.184 338.109 85.408C338.349 85.616 338.749 85.72 339.309 85.72H340.989V88H338.829C337.597 88 336.653 87.712 335.997 87.136C335.341 86.56 335.013 85.624 335.013 84.328V77.008H333.453V74.776H335.013V71.488H337.773V74.776H340.989V77.008H337.773ZM344.615 88.168C344.119 88.168 343.703 88 343.367 87.664C343.031 87.328 342.863 86.912 342.863 86.416C342.863 85.92 343.031 85.504 343.367 85.168C343.703 84.832 344.119 84.664 344.615 84.664C345.095 84.664 345.503 84.832 345.839 85.168C346.175 85.504 346.343 85.92 346.343 86.416C346.343 86.912 346.175 87.328 345.839 87.664C345.503 88 345.095 88.168 344.615 88.168Z" fill="#252A34"/>
<path d="M36.7423 16.27V17.572H34.1523V26H32.5563V17.572H29.9523V16.27H36.7423ZM42.3486 18.16C42.9366 18.16 43.4593 18.286 43.9166 18.538C44.3833 18.79 44.7473 19.1633 45.0086 19.658C45.2793 20.1527 45.4146 20.75 45.4146 21.45V26H43.8326V21.688C43.8326 20.9973 43.6599 20.47 43.3146 20.106C42.9693 19.7327 42.4979 19.546 41.9006 19.546C41.3033 19.546 40.8273 19.7327 40.4726 20.106C40.1273 20.47 39.9546 20.9973 39.9546 21.688V26H38.3586V15.64H39.9546V19.182C40.2253 18.8553 40.5659 18.6033 40.9766 18.426C41.3966 18.2487 41.8539 18.16 42.3486 18.16ZM48.2624 17.264C47.9731 17.264 47.7304 17.166 47.5344 16.97C47.3384 16.774 47.2404 16.5313 47.2404 16.242C47.2404 15.9527 47.3384 15.71 47.5344 15.514C47.7304 15.318 47.9731 15.22 48.2624 15.22C48.5424 15.22 48.7804 15.318 48.9764 15.514C49.1724 15.71 49.2704 15.9527 49.2704 16.242C49.2704 16.5313 49.1724 16.774 48.9764 16.97C48.7804 17.166 48.5424 17.264 48.2624 17.264ZM49.0464 18.286V26H47.4504V18.286H49.0464ZM53.9418 26.126C53.3351 26.126 52.7891 26.0187 52.3038 25.804C51.8278 25.58 51.4498 25.2813 51.1698 24.908C50.8898 24.5253 50.7405 24.1007 50.7218 23.634H52.3738C52.4018 23.9607 52.5558 24.236 52.8358 24.46C53.1251 24.6747 53.4845 24.782 53.9138 24.782C54.3618 24.782 54.7071 24.698 54.9498 24.53C55.2018 24.3527 55.3278 24.1287 55.3278 23.858C55.3278 23.5687 55.1878 23.354 54.9078 23.214C54.6371 23.074 54.2031 22.92 53.6058 22.752C53.0271 22.5933 52.5558 22.4393 52.1918 22.29C51.8278 22.1407 51.5105 21.912 51.2398 21.604C50.9785 21.296 50.8478 20.89 50.8478 20.386C50.8478 19.9753 50.9691 19.602 51.2118 19.266C51.4545 18.9207 51.7998 18.65 52.2478 18.454C52.7051 18.258 53.2278 18.16 53.8158 18.16C54.6931 18.16 55.3978 18.384 55.9298 18.832C56.4711 19.2707 56.7605 19.8727 56.7978 20.638H55.2018C55.1738 20.2927 55.0338 20.0173 54.7818 19.812C54.5298 19.6067 54.1891 19.504 53.7598 19.504C53.3398 19.504 53.0178 19.5833 52.7938 19.742C52.5698 19.9007 52.4578 20.1107 52.4578 20.372C52.4578 20.5773 52.5325 20.75 52.6818 20.89C52.8311 21.03 53.0131 21.142 53.2278 21.226C53.4425 21.3007 53.7598 21.3987 54.1798 21.52C54.7398 21.6693 55.1971 21.8233 55.5518 21.982C55.9158 22.1313 56.2285 22.3553 56.4898 22.654C56.7511 22.9527 56.8865 23.3493 56.8958 23.844C56.8958 24.2827 56.7745 24.6747 56.5318 25.02C56.2891 25.3653 55.9438 25.636 55.4958 25.832C55.0571 26.028 54.5391 26.126 53.9418 26.126ZM63.069 17.264C62.7797 17.264 62.537 17.166 62.341 16.97C62.145 16.774 62.047 16.5313 62.047 16.242C62.047 15.9527 62.145 15.71 62.341 15.514C62.537 15.318 62.7797 15.22 63.069 15.22C63.349 15.22 63.587 15.318 63.783 15.514C63.979 15.71 64.077 15.9527 64.077 16.242C64.077 16.5313 63.979 16.774 63.783 16.97C63.587 17.166 63.349 17.264 63.069 17.264ZM63.853 18.286V26H62.257V18.286H63.853ZM68.7484 26.126C68.1418 26.126 67.5958 26.0187 67.1104 25.804C66.6344 25.58 66.2564 25.2813 65.9764 24.908C65.6964 24.5253 65.5471 24.1007 65.5284 23.634H67.1804C67.2084 23.9607 67.3624 24.236 67.6424 24.46C67.9318 24.6747 68.2911 24.782 68.7204 24.782C69.1684 24.782 69.5138 24.698 69.7564 24.53C70.0084 24.3527 70.1344 24.1287 70.1344 23.858C70.1344 23.5687 69.9944 23.354 69.7144 23.214C69.4438 23.074 69.0098 22.92 68.4124 22.752C67.8338 22.5933 67.3624 22.4393 66.9984 22.29C66.6344 22.1407 66.3171 21.912 66.0464 21.604C65.7851 21.296 65.6544 20.89 65.6544 20.386C65.6544 19.9753 65.7758 19.602 66.0184 19.266C66.2611 18.9207 66.6064 18.65 67.0544 18.454C67.5118 18.258 68.0344 18.16 68.6224 18.16C69.4998 18.16 70.2044 18.384 70.7364 18.832C71.2778 19.2707 71.5671 19.8727 71.6044 20.638H70.0084C69.9804 20.2927 69.8404 20.0173 69.5884 19.812C69.3364 19.6067 68.9958 19.504 68.5664 19.504C68.1464 19.504 67.8244 19.5833 67.6004 19.742C67.3764 19.9007 67.2644 20.1107 67.2644 20.372C67.2644 20.5773 67.3391 20.75 67.4884 20.89C67.6378 21.03 67.8198 21.142 68.0344 21.226C68.2491 21.3007 68.5664 21.3987 68.9864 21.52C69.5464 21.6693 70.0038 21.8233 70.3584 21.982C70.7224 22.1313 71.0351 22.3553 71.2964 22.654C71.5578 22.9527 71.6931 23.3493 71.7024 23.844C71.7024 24.2827 71.5811 24.6747 71.3384 25.02C71.0958 25.3653 70.7504 25.636 70.3024 25.832C69.8638 26.028 69.3458 26.126 68.7484 26.126ZM76.5317 22.108C76.5317 21.3333 76.6903 20.6473 77.0077 20.05C77.3343 19.4527 77.773 18.9907 78.3237 18.664C78.8837 18.328 79.4997 18.16 80.1717 18.16C80.7783 18.16 81.3057 18.2813 81.7537 18.524C82.211 18.7573 82.575 19.0513 82.8457 19.406V18.286H84.4557V26H82.8457V24.852C82.575 25.216 82.2063 25.5193 81.7397 25.762C81.273 26.0047 80.741 26.126 80.1437 26.126C79.481 26.126 78.8743 25.958 78.3237 25.622C77.773 25.2767 77.3343 24.8007 77.0077 24.194C76.6903 23.578 76.5317 22.8827 76.5317 22.108ZM82.8457 22.136C82.8457 21.604 82.7337 21.142 82.5097 20.75C82.295 20.358 82.0103 20.0593 81.6557 19.854C81.301 19.6487 80.9183 19.546 80.5077 19.546C80.097 19.546 79.7143 19.6487 79.3597 19.854C79.005 20.05 78.7157 20.344 78.4917 20.736C78.277 21.1187 78.1697 21.576 78.1697 22.108C78.1697 22.64 78.277 23.1067 78.4917 23.508C78.7157 23.9093 79.005 24.2173 79.3597 24.432C79.7237 24.6373 80.1063 24.74 80.5077 24.74C80.9183 24.74 81.301 24.6373 81.6557 24.432C82.0103 24.2267 82.295 23.928 82.5097 23.536C82.7337 23.1347 82.8457 22.668 82.8457 22.136ZM90.444 18.16C91.0506 18.16 91.592 18.286 92.068 18.538C92.5533 18.79 92.9313 19.1633 93.202 19.658C93.4726 20.1527 93.608 20.75 93.608 21.45V26H92.026V21.688C92.026 20.9973 91.8533 20.47 91.508 20.106C91.1626 19.7327 90.6913 19.546 90.094 19.546C89.4966 19.546 89.0206 19.7327 88.666 20.106C88.3206 20.47 88.148 20.9973 88.148 21.688V26H86.552V18.286H88.148V19.168C88.4093 18.8507 88.7406 18.6033 89.142 18.426C89.5526 18.2487 89.9866 18.16 90.444 18.16Z" fill="#252A34"/>
<path d="M212.228 16.27C213.264 16.27 214.169 16.4707 214.944 16.872C215.728 17.264 216.33 17.8333 216.75 18.58C217.179 19.3173 217.394 20.1807 217.394 21.17C217.394 22.1593 217.179 23.018 216.75 23.746C216.33 24.474 215.728 25.034 214.944 25.426C214.169 25.8087 213.264 26 212.228 26H209.05V16.27H212.228ZM212.228 24.698C213.367 24.698 214.239 24.39 214.846 23.774C215.453 23.158 215.756 22.29 215.756 21.17C215.756 20.0407 215.453 19.1587 214.846 18.524C214.239 17.8893 213.367 17.572 212.228 17.572H210.646V24.698H212.228ZM226.046 21.954C226.046 22.2433 226.027 22.5047 225.99 22.738H220.096C220.142 23.354 220.371 23.8487 220.782 24.222C221.192 24.5953 221.696 24.782 222.294 24.782C223.152 24.782 223.759 24.4227 224.114 23.704H225.836C225.602 24.4133 225.178 24.9967 224.562 25.454C223.955 25.902 223.199 26.126 222.294 26.126C221.556 26.126 220.894 25.9627 220.306 25.636C219.727 25.3 219.27 24.8333 218.934 24.236C218.607 23.6293 218.444 22.9293 218.444 22.136C218.444 21.3427 218.602 20.6473 218.92 20.05C219.246 19.4433 219.699 18.9767 220.278 18.65C220.866 18.3233 221.538 18.16 222.294 18.16C223.022 18.16 223.67 18.3187 224.24 18.636C224.809 18.9533 225.252 19.4013 225.57 19.98C225.887 20.5493 226.046 21.2073 226.046 21.954ZM224.38 21.45C224.37 20.862 224.16 20.3907 223.75 20.036C223.339 19.6813 222.83 19.504 222.224 19.504C221.673 19.504 221.202 19.6813 220.81 20.036C220.418 20.3813 220.184 20.8527 220.11 21.45H224.38ZM230.598 24.572L232.782 18.286H234.476L231.536 26H229.632L226.706 18.286H228.414L230.598 24.572ZM242.753 21.954C242.753 22.2433 242.734 22.5047 242.697 22.738H236.803C236.849 23.354 237.078 23.8487 237.489 24.222C237.899 24.5953 238.403 24.782 239.001 24.782C239.859 24.782 240.466 24.4227 240.821 23.704H242.543C242.309 24.4133 241.885 24.9967 241.269 25.454C240.662 25.902 239.906 26.126 239.001 26.126C238.263 26.126 237.601 25.9627 237.013 25.636C236.434 25.3 235.977 24.8333 235.641 24.236C235.314 23.6293 235.151 22.9293 235.151 22.136C235.151 21.3427 235.309 20.6473 235.627 20.05C235.953 19.4433 236.406 18.9767 236.985 18.65C237.573 18.3233 238.245 18.16 239.001 18.16C239.729 18.16 240.377 18.3187 240.947 18.636C241.516 18.9533 241.959 19.4013 242.277 19.98C242.594 20.5493 242.753 21.2073 242.753 21.954ZM241.087 21.45C241.077 20.862 240.867 20.3907 240.457 20.036C240.046 19.6813 239.537 19.504 238.931 19.504C238.38 19.504 237.909 19.6813 237.517 20.036C237.125 20.3813 236.891 20.8527 236.817 21.45H241.087ZM245.919 15.64V26H244.323V15.64H245.919ZM251.361 26.126C250.633 26.126 249.975 25.9627 249.387 25.636C248.799 25.3 248.337 24.8333 248.001 24.236C247.665 23.6293 247.497 22.9293 247.497 22.136C247.497 21.352 247.67 20.6567 248.015 20.05C248.36 19.4433 248.832 18.9767 249.429 18.65C250.026 18.3233 250.694 18.16 251.431 18.16C252.168 18.16 252.836 18.3233 253.433 18.65C254.03 18.9767 254.502 19.4433 254.847 20.05C255.192 20.6567 255.365 21.352 255.365 22.136C255.365 22.92 255.188 23.6153 254.833 24.222C254.478 24.8287 253.993 25.3 253.377 25.636C252.77 25.9627 252.098 26.126 251.361 26.126ZM251.361 24.74C251.772 24.74 252.154 24.642 252.509 24.446C252.873 24.25 253.167 23.956 253.391 23.564C253.615 23.172 253.727 22.696 253.727 22.136C253.727 21.576 253.62 21.1047 253.405 20.722C253.19 20.33 252.906 20.036 252.551 19.84C252.196 19.644 251.814 19.546 251.403 19.546C250.992 19.546 250.61 19.644 250.255 19.84C249.91 20.036 249.634 20.33 249.429 20.722C249.224 21.1047 249.121 21.576 249.121 22.136C249.121 22.9667 249.331 23.6107 249.751 24.068C250.18 24.516 250.717 24.74 251.361 24.74ZM258.539 19.42C258.809 19.0653 259.178 18.7667 259.645 18.524C260.111 18.2813 260.639 18.16 261.227 18.16C261.899 18.16 262.51 18.328 263.061 18.664C263.621 18.9907 264.059 19.4527 264.377 20.05C264.694 20.6473 264.853 21.3333 264.853 22.108C264.853 22.8827 264.694 23.578 264.377 24.194C264.059 24.8007 263.621 25.2767 263.061 25.622C262.51 25.958 261.899 26.126 261.227 26.126C260.639 26.126 260.116 26.0093 259.659 25.776C259.201 25.5333 258.828 25.2347 258.539 24.88V29.668H256.943V18.286H258.539V19.42ZM263.229 22.108C263.229 21.576 263.117 21.1187 262.893 20.736C262.678 20.344 262.389 20.05 262.025 19.854C261.67 19.6487 261.287 19.546 260.877 19.546C260.475 19.546 260.093 19.6487 259.729 19.854C259.374 20.0593 259.085 20.358 258.861 20.75C258.646 21.142 258.539 21.604 258.539 22.136C258.539 22.668 258.646 23.1347 258.861 23.536C259.085 23.928 259.374 24.2267 259.729 24.432C260.093 24.6373 260.475 24.74 260.877 24.74C261.287 24.74 261.67 24.6373 262.025 24.432C262.389 24.2173 262.678 23.9093 262.893 23.508C263.117 23.1067 263.229 22.64 263.229 22.108ZM273.501 21.954C273.501 22.2433 273.482 22.5047 273.445 22.738H267.551C267.598 23.354 267.826 23.8487 268.237 24.222C268.648 24.5953 269.152 24.782 269.749 24.782C270.608 24.782 271.214 24.4227 271.569 23.704H273.291C273.058 24.4133 272.633 24.9967 272.017 25.454C271.41 25.902 270.654 26.126 269.749 26.126C269.012 26.126 268.349 25.9627 267.761 25.636C267.182 25.3 266.725 24.8333 266.389 24.236C266.062 23.6293 265.899 22.9293 265.899 22.136C265.899 21.3427 266.058 20.6473 266.375 20.05C266.702 19.4433 267.154 18.9767 267.733 18.65C268.321 18.3233 268.993 18.16 269.749 18.16C270.477 18.16 271.126 18.3187 271.695 18.636C272.264 18.9533 272.708 19.4013 273.025 19.98C273.342 20.5493 273.501 21.2073 273.501 21.954ZM271.835 21.45C271.826 20.862 271.616 20.3907 271.205 20.036C270.794 19.6813 270.286 19.504 269.679 19.504C269.128 19.504 268.657 19.6813 268.265 20.036C267.873 20.3813 267.64 20.8527 267.565 21.45H271.835ZM274.539 22.108C274.539 21.3333 274.698 20.6473 275.015 20.05C275.342 19.4527 275.781 18.9907 276.331 18.664C276.891 18.328 277.512 18.16 278.193 18.16C278.697 18.16 279.192 18.272 279.677 18.496C280.172 18.7107 280.564 19 280.853 19.364V15.64H282.463V26H280.853V24.838C280.592 25.2113 280.228 25.5193 279.761 25.762C279.304 26.0047 278.777 26.126 278.179 26.126C277.507 26.126 276.891 25.958 276.331 25.622C275.781 25.2767 275.342 24.8007 275.015 24.194C274.698 23.578 274.539 22.8827 274.539 22.108ZM280.853 22.136C280.853 21.604 280.741 21.142 280.517 20.75C280.303 20.358 280.018 20.0593 279.663 19.854C279.309 19.6487 278.926 19.546 278.515 19.546C278.105 19.546 277.722 19.6487 277.367 19.854C277.013 20.05 276.723 20.344 276.499 20.736C276.285 21.1187 276.177 21.576 276.177 22.108C276.177 22.64 276.285 23.1067 276.499 23.508C276.723 23.9093 277.013 24.2173 277.367 24.432C277.731 24.6373 278.114 24.74 278.515 24.74C278.926 24.74 279.309 24.6373 279.663 24.432C280.018 24.2267 280.303 23.928 280.517 23.536C280.741 23.1347 280.853 22.668 280.853 22.136ZM287.664 22.108C287.664 21.3333 287.823 20.6473 288.14 20.05C288.467 19.4527 288.906 18.9907 289.456 18.664C290.016 18.328 290.637 18.16 291.318 18.16C291.822 18.16 292.317 18.272 292.802 18.496C293.297 18.7107 293.689 19 293.978 19.364V15.64H295.588V26H293.978V24.838C293.717 25.2113 293.353 25.5193 292.886 25.762C292.429 26.0047 291.902 26.126 291.304 26.126C290.632 26.126 290.016 25.958 289.456 25.622C288.906 25.2767 288.467 24.8007 288.14 24.194C287.823 23.578 287.664 22.8827 287.664 22.108ZM293.978 22.136C293.978 21.604 293.866 21.142 293.642 20.75C293.428 20.358 293.143 20.0593 292.788 19.854C292.434 19.6487 292.051 19.546 291.64 19.546C291.23 19.546 290.847 19.6487 290.492 19.854C290.138 20.05 289.848 20.344 289.624 20.736C289.41 21.1187 289.302 21.576 289.302 22.108C289.302 22.64 289.41 23.1067 289.624 23.508C289.848 23.9093 290.138 24.2173 290.492 24.432C290.856 24.6373 291.239 24.74 291.64 24.74C292.051 24.74 292.434 24.6373 292.788 24.432C293.143 24.2267 293.428 23.928 293.642 23.536C293.866 23.1347 293.978 22.668 293.978 22.136ZM304.671 18.286V26H303.075V25.09C302.823 25.4073 302.491 25.6593 302.081 25.846C301.679 26.0233 301.25 26.112 300.793 26.112C300.186 26.112 299.64 25.986 299.155 25.734C298.679 25.482 298.301 25.1087 298.021 24.614C297.75 24.1193 297.615 23.522 297.615 22.822V18.286H299.197V22.584C299.197 23.2747 299.369 23.8067 299.715 24.18C300.06 24.544 300.531 24.726 301.129 24.726C301.726 24.726 302.197 24.544 302.543 24.18C302.897 23.8067 303.075 23.2747 303.075 22.584V18.286H304.671ZM308.373 19.406C308.606 19.014 308.914 18.7107 309.297 18.496C309.689 18.272 310.151 18.16 310.683 18.16V19.812H310.277C309.651 19.812 309.175 19.9707 308.849 20.288C308.531 20.6053 308.373 21.156 308.373 21.94V26H306.777V18.286H308.373V19.406ZM312.962 17.264C312.672 17.264 312.43 17.166 312.234 16.97C312.038 16.774 311.94 16.5313 311.94 16.242C311.94 15.9527 312.038 15.71 312.234 15.514C312.43 15.318 312.672 15.22 312.962 15.22C313.242 15.22 313.48 15.318 313.676 15.514C313.872 15.71 313.97 15.9527 313.97 16.242C313.97 16.5313 313.872 16.774 313.676 16.97C313.48 17.166 313.242 17.264 312.962 17.264ZM313.746 18.286V26H312.15V18.286H313.746ZM319.733 18.16C320.34 18.16 320.881 18.286 321.357 18.538C321.842 18.79 322.22 19.1633 322.491 19.658C322.762 20.1527 322.897 20.75 322.897 21.45V26H321.315V21.688C321.315 20.9973 321.142 20.47 320.797 20.106C320.452 19.7327 319.98 19.546 319.383 19.546C318.786 19.546 318.31 19.7327 317.955 20.106C317.61 20.47 317.437 20.9973 317.437 21.688V26H315.841V18.286H317.437V19.168C317.698 18.8507 318.03 18.6033 318.431 18.426C318.842 18.2487 319.276 18.16 319.733 18.16ZM328.041 18.16C328.638 18.16 329.165 18.2813 329.623 18.524C330.089 18.7573 330.453 19.0513 330.715 19.406V18.286H332.325V26.126C332.325 26.8353 332.175 27.4653 331.877 28.016C331.578 28.576 331.144 29.0147 330.575 29.332C330.015 29.6493 329.343 29.808 328.559 29.808C327.513 29.808 326.645 29.5607 325.955 29.066C325.264 28.5807 324.872 27.918 324.779 27.078H326.361C326.482 27.4793 326.739 27.8013 327.131 28.044C327.532 28.296 328.008 28.422 328.559 28.422C329.203 28.422 329.721 28.226 330.113 27.834C330.514 27.442 330.715 26.8727 330.715 26.126V24.838C330.444 25.202 330.075 25.51 329.609 25.762C329.151 26.0047 328.629 26.126 328.041 26.126C327.369 26.126 326.753 25.958 326.193 25.622C325.642 25.2767 325.203 24.8007 324.877 24.194C324.559 23.578 324.401 22.8827 324.401 22.108C324.401 21.3333 324.559 20.6473 324.877 20.05C325.203 19.4527 325.642 18.9907 326.193 18.664C326.753 18.328 327.369 18.16 328.041 18.16ZM330.715 22.136C330.715 21.604 330.603 21.142 330.379 20.75C330.164 20.358 329.879 20.0593 329.525 19.854C329.17 19.6487 328.787 19.546 328.377 19.546C327.966 19.546 327.583 19.6487 327.229 19.854C326.874 20.05 326.585 20.344 326.361 20.736C326.146 21.1187 326.039 21.576 326.039 22.108C326.039 22.64 326.146 23.1067 326.361 23.508C326.585 23.9093 326.874 24.2173 327.229 24.432C327.593 24.6373 327.975 24.74 328.377 24.74C328.787 24.74 329.17 24.6373 329.525 24.432C329.879 24.2267 330.164 23.928 330.379 23.536C330.603 23.1347 330.715 22.668 330.715 22.136ZM212.284 41.588H210.856V48H209.246V41.588H208.336V40.286H209.246V39.74C209.246 38.8533 209.479 38.2093 209.946 37.808C210.422 37.3973 211.164 37.192 212.172 37.192V38.522C211.687 38.522 211.346 38.6153 211.15 38.802C210.954 38.9793 210.856 39.292 210.856 39.74V40.286H212.284V41.588ZM214.51 39.264C214.221 39.264 213.978 39.166 213.782 38.97C213.586 38.774 213.488 38.5313 213.488 38.242C213.488 37.9527 213.586 37.71 213.782 37.514C213.978 37.318 214.221 37.22 214.51 37.22C214.79 37.22 215.028 37.318 215.224 37.514C215.42 37.71 215.518 37.9527 215.518 38.242C215.518 38.5313 215.42 38.774 215.224 38.97C215.028 39.166 214.79 39.264 214.51 39.264ZM215.294 40.286V48H213.698V40.286H215.294ZM221.282 40.16C221.889 40.16 222.43 40.286 222.906 40.538C223.391 40.79 223.769 41.1633 224.04 41.658C224.311 42.1527 224.446 42.75 224.446 43.45V48H222.864V43.688C222.864 42.9973 222.691 42.47 222.346 42.106C222.001 41.7327 221.529 41.546 220.932 41.546C220.335 41.546 219.859 41.7327 219.504 42.106C219.159 42.47 218.986 42.9973 218.986 43.688V48H217.39V40.286H218.986V41.168C219.247 40.8507 219.579 40.6033 219.98 40.426C220.391 40.2487 220.825 40.16 221.282 40.16ZM225.95 44.108C225.95 43.3333 226.108 42.6473 226.426 42.05C226.752 41.4527 227.191 40.9907 227.742 40.664C228.302 40.328 228.918 40.16 229.59 40.16C230.196 40.16 230.724 40.2813 231.172 40.524C231.629 40.7573 231.993 41.0513 232.264 41.406V40.286H233.874V48H232.264V46.852C231.993 47.216 231.624 47.5193 231.158 47.762C230.691 48.0047 230.159 48.126 229.562 48.126C228.899 48.126 228.292 47.958 227.742 47.622C227.191 47.2767 226.752 46.8007 226.426 46.194C226.108 45.578 225.95 44.8827 225.95 44.108ZM232.264 44.136C232.264 43.604 232.152 43.142 231.928 42.75C231.713 42.358 231.428 42.0593 231.074 41.854C230.719 41.6487 230.336 41.546 229.926 41.546C229.515 41.546 229.132 41.6487 228.778 41.854C228.423 42.05 228.134 42.344 227.91 42.736C227.695 43.1187 227.588 43.576 227.588 44.108C227.588 44.64 227.695 45.1067 227.91 45.508C228.134 45.9093 228.423 46.2173 228.778 46.432C229.142 46.6373 229.524 46.74 229.926 46.74C230.336 46.74 230.719 46.6373 231.074 46.432C231.428 46.2267 231.713 45.928 231.928 45.536C232.152 45.1347 232.264 44.668 232.264 44.136ZM237.566 37.64V48H235.97V37.64H237.566ZM250.242 40.286L245.51 51.626H243.858L245.426 47.874L242.388 40.286H244.166L246.336 46.166L248.59 40.286H250.242ZM258.516 43.954C258.516 44.2433 258.498 44.5047 258.46 44.738H252.566C252.613 45.354 252.842 45.8487 253.252 46.222C253.663 46.5953 254.167 46.782 254.764 46.782C255.623 46.782 256.23 46.4227 256.584 45.704H258.306C258.073 46.4133 257.648 46.9967 257.032 47.454C256.426 47.902 255.67 48.126 254.764 48.126C254.027 48.126 253.364 47.9627 252.776 47.636C252.198 47.3 251.74 46.8333 251.404 46.236C251.078 45.6293 250.914 44.9293 250.914 44.136C250.914 43.3427 251.073 42.6473 251.39 42.05C251.717 41.4433 252.17 40.9767 252.748 40.65C253.336 40.3233 254.008 40.16 254.764 40.16C255.492 40.16 256.141 40.3187 256.71 40.636C257.28 40.9533 257.723 41.4013 258.04 41.98C258.358 42.5493 258.516 43.2073 258.516 43.954ZM256.85 43.45C256.841 42.862 256.631 42.3907 256.22 42.036C255.81 41.6813 255.301 41.504 254.694 41.504C254.144 41.504 253.672 41.6813 253.28 42.036C252.888 42.3813 252.655 42.8527 252.58 43.45H256.85ZM259.555 44.108C259.555 43.3333 259.714 42.6473 260.031 42.05C260.358 41.4527 260.796 40.9907 261.347 40.664C261.907 40.328 262.523 40.16 263.195 40.16C263.802 40.16 264.329 40.2813 264.777 40.524C265.234 40.7573 265.598 41.0513 265.869 41.406V40.286H267.479V48H265.869V46.852C265.598 47.216 265.23 47.5193 264.763 47.762C264.296 48.0047 263.764 48.126 263.167 48.126C262.504 48.126 261.898 47.958 261.347 47.622C260.796 47.2767 260.358 46.8007 260.031 46.194C259.714 45.578 259.555 44.8827 259.555 44.108ZM265.869 44.136C265.869 43.604 265.757 43.142 265.533 42.75C265.318 42.358 265.034 42.0593 264.679 41.854C264.324 41.6487 263.942 41.546 263.531 41.546C263.12 41.546 262.738 41.6487 262.383 41.854C262.028 42.05 261.739 42.344 261.515 42.736C261.3 43.1187 261.193 43.576 261.193 44.108C261.193 44.64 261.3 45.1067 261.515 45.508C261.739 45.9093 262.028 46.2173 262.383 46.432C262.747 46.6373 263.13 46.74 263.531 46.74C263.942 46.74 264.324 46.6373 264.679 46.432C265.034 46.2267 265.318 45.928 265.533 45.536C265.757 45.1347 265.869 44.668 265.869 44.136ZM271.171 41.406C271.405 41.014 271.713 40.7107 272.095 40.496C272.487 40.272 272.949 40.16 273.481 40.16V41.812H273.075C272.45 41.812 271.974 41.9707 271.647 42.288C271.33 42.6053 271.171 43.156 271.171 43.94V48H269.575V40.286H271.171V41.406ZM278.053 44.108C278.053 43.3333 278.212 42.6473 278.529 42.05C278.856 41.4527 279.294 40.9907 279.845 40.664C280.405 40.328 281.021 40.16 281.693 40.16C282.3 40.16 282.827 40.2813 283.275 40.524C283.732 40.7573 284.096 41.0513 284.367 41.406V40.286H285.977V48H284.367V46.852C284.096 47.216 283.728 47.5193 283.261 47.762C282.794 48.0047 282.262 48.126 281.665 48.126C281.002 48.126 280.396 47.958 279.845 47.622C279.294 47.2767 278.856 46.8007 278.529 46.194C278.212 45.578 278.053 44.8827 278.053 44.108ZM284.367 44.136C284.367 43.604 284.255 43.142 284.031 42.75C283.816 42.358 283.532 42.0593 283.177 41.854C282.822 41.6487 282.44 41.546 282.029 41.546C281.618 41.546 281.236 41.6487 280.881 41.854C280.526 42.05 280.237 42.344 280.013 42.736C279.798 43.1187 279.691 43.576 279.691 44.108C279.691 44.64 279.798 45.1067 280.013 45.508C280.237 45.9093 280.526 46.2173 280.881 46.432C281.245 46.6373 281.628 46.74 282.029 46.74C282.44 46.74 282.822 46.6373 283.177 46.432C283.532 46.2267 283.816 45.928 284.031 45.536C284.255 45.1347 284.367 44.668 284.367 44.136ZM289.935 41.588V45.858C289.935 46.1473 290.001 46.3573 290.131 46.488C290.271 46.6093 290.505 46.67 290.831 46.67H291.811V48H290.551C289.833 48 289.282 47.832 288.899 47.496C288.517 47.16 288.325 46.614 288.325 45.858V41.588H287.415V40.286H288.325V38.368H289.935V40.286H291.811V41.588H289.935Z" fill="#252A34"/>
<line x1="185.5" y1="17" x2="185.5" y2="91" stroke="#EAEAEA"/>
</svg>
