<svg width="330" height="92" viewBox="0 0 330 92" fill="none" xmlns="http://www.w3.org/2000/svg">
<path d="M23.455 44.42H11.665L9.775 50H1.72L13.15 18.41H22.06L33.49 50H25.345L23.455 44.42ZM21.475 38.48L17.56 26.915L13.69 38.48H21.475ZM57.9387 28.4C57.3687 27.35 56.5437 26.555 55.4637 26.015C54.4137 25.445 53.1687 25.16 51.7287 25.16C49.2387 25.16 47.2437 25.985 45.7437 27.635C44.2437 29.255 43.4937 31.43 43.4937 34.16C43.4937 37.07 44.2737 39.35 45.8337 41C47.4237 42.62 49.5987 43.43 52.3587 43.43C54.2487 43.43 55.8387 42.95 57.1287 41.99C58.4487 41.03 59.4087 39.65 60.0087 37.85H50.2437V32.18H66.9837V39.335C66.4137 41.255 65.4387 43.04 64.0587 44.69C62.7087 46.34 60.9837 47.675 58.8837 48.695C56.7837 49.715 54.4137 50.225 51.7737 50.225C48.6537 50.225 45.8637 49.55 43.4037 48.2C40.9737 46.82 39.0687 44.915 37.6887 42.485C36.3387 40.055 35.6637 37.28 35.6637 34.16C35.6637 31.04 36.3387 28.265 37.6887 25.835C39.0687 23.375 40.9737 21.47 43.4037 20.12C45.8337 18.74 48.6087 18.05 51.7287 18.05C55.5087 18.05 58.6887 18.965 61.2687 20.795C63.8787 22.625 65.6037 25.16 66.4437 28.4H57.9387ZM78.9411 24.575V30.965H89.2461V36.905H78.9411V43.835H90.5961V50H71.2461V18.41H90.5961V24.575H78.9411ZM129.293 50L126.368 47.165C123.458 49.385 119.978 50.495 115.928 50.495C113.498 50.495 111.383 50.105 109.583 49.325C107.783 48.515 106.388 47.39 105.398 45.95C104.438 44.48 103.958 42.77 103.958 40.82C103.958 38.84 104.483 37.055 105.533 35.465C106.613 33.845 108.218 32.525 110.348 31.505C109.568 30.545 109.013 29.63 108.683 28.76C108.353 27.86 108.188 26.885 108.188 25.835C108.188 24.335 108.578 22.97 109.358 21.74C110.138 20.51 111.263 19.55 112.733 18.86C114.233 18.14 116.003 17.78 118.043 17.78C120.113 17.78 121.868 18.155 123.308 18.905C124.748 19.655 125.828 20.66 126.548 21.92C127.268 23.18 127.598 24.56 127.538 26.06H120.293C120.323 25.25 120.113 24.635 119.663 24.215C119.243 23.765 118.673 23.54 117.953 23.54C117.233 23.54 116.633 23.75 116.153 24.17C115.673 24.59 115.433 25.13 115.433 25.79C115.433 26.42 115.628 27.08 116.018 27.77C116.438 28.46 117.083 29.255 117.953 30.155L125.648 37.67C125.708 37.52 125.783 37.34 125.873 37.13C125.993 36.92 126.113 36.68 126.233 36.41L127.898 33.575H135.593L133.433 37.49C132.623 39.26 131.693 40.94 130.643 42.53L138.248 50H129.293ZM116.288 44.285C118.298 44.285 120.083 43.715 121.643 42.575L114.623 35.78C112.463 36.89 111.383 38.39 111.383 40.28C111.383 41.42 111.818 42.38 112.688 43.16C113.588 43.91 114.788 44.285 116.288 44.285ZM171.537 28.4C170.967 27.35 170.142 26.555 169.062 26.015C168.012 25.445 166.767 25.16 165.327 25.16C162.837 25.16 160.842 25.985 159.342 27.635C157.842 29.255 157.092 31.43 157.092 34.16C157.092 37.07 157.872 39.35 159.432 41C161.022 42.62 163.197 43.43 165.957 43.43C167.847 43.43 169.437 42.95 170.727 41.99C172.047 41.03 173.007 39.65 173.607 37.85H163.842V32.18H180.582V39.335C180.012 41.255 179.037 43.04 177.657 44.69C176.307 46.34 174.582 47.675 172.482 48.695C170.382 49.715 168.012 50.225 165.372 50.225C162.252 50.225 159.462 49.55 157.002 48.2C154.572 46.82 152.667 44.915 151.287 42.485C149.937 40.055 149.262 37.28 149.262 34.16C149.262 31.04 149.937 28.265 151.287 25.835C152.667 23.375 154.572 21.47 157.002 20.12C159.432 18.74 162.207 18.05 165.327 18.05C169.107 18.05 172.287 18.965 174.867 20.795C177.477 22.625 179.202 25.16 180.042 28.4H171.537ZM192.54 24.575V30.965H202.845V36.905H192.54V43.835H204.195V50H184.845V18.41H204.195V24.575H192.54ZM237.45 50H229.755L216.885 30.515V50H209.19V18.41H216.885L229.755 37.985V18.41H237.45V50ZM254.863 18.41C258.193 18.41 261.103 19.07 263.593 20.39C266.083 21.71 268.003 23.57 269.353 25.97C270.733 28.34 271.423 31.085 271.423 34.205C271.423 37.295 270.733 40.04 269.353 42.44C268.003 44.84 266.068 46.7 263.548 48.02C261.058 49.34 258.163 50 254.863 50H243.028V18.41H254.863ZM254.368 43.34C257.278 43.34 259.543 42.545 261.163 40.955C262.783 39.365 263.593 37.115 263.593 34.205C263.593 31.295 262.783 29.03 261.163 27.41C259.543 25.79 257.278 24.98 254.368 24.98H250.723V43.34H254.368ZM283.419 24.575V30.965H293.724V36.905H283.419V43.835H295.074V50H275.724V18.41H295.074V24.575H283.419ZM316.179 50L309.609 38.075H307.764V50H300.069V18.41H312.984C315.474 18.41 317.589 18.845 319.329 19.715C321.099 20.585 322.419 21.785 323.289 23.315C324.159 24.815 324.594 26.495 324.594 28.355C324.594 30.455 323.994 32.33 322.794 33.98C321.624 35.63 319.884 36.8 317.574 37.49L324.864 50H316.179ZM307.764 32.63H312.534C313.944 32.63 314.994 32.285 315.684 31.595C316.404 30.905 316.764 29.93 316.764 28.67C316.764 27.47 316.404 26.525 315.684 25.835C314.994 25.145 313.944 24.8 312.534 24.8H307.764V32.63Z" fill="#252A34"/>
<path d="M7.248 65.32C9.024 65.32 10.576 65.664 11.904 66.352C13.248 67.024 14.28 68 15 69.28C15.736 70.544 16.104 72.024 16.104 73.72C16.104 75.416 15.736 76.888 15 78.136C14.28 79.384 13.248 80.344 11.904 81.016C10.576 81.672 9.024 82 7.248 82H1.8V65.32H7.248ZM7.248 79.768C9.2 79.768 10.696 79.24 11.736 78.184C12.776 77.128 13.296 75.64 13.296 73.72C13.296 71.784 12.776 70.272 11.736 69.184C10.696 68.096 9.2 67.552 7.248 67.552H4.536V79.768H7.248ZM46.3916 67.528V72.424H52.1516V74.656H46.3916V79.768H52.8716V82H43.6556V65.296H52.8716V67.528H46.3916ZM91.8576 65.32V67.552H87.4176V82H84.6816V67.552H80.2176V65.32H91.8576ZM122.204 67.528V72.424H127.964V74.656H122.204V79.768H128.684V82H119.468V65.296H128.684V67.528H122.204ZM155.982 73.624C155.982 71.992 156.358 70.528 157.11 69.232C157.878 67.936 158.91 66.928 160.206 66.208C161.518 65.472 162.95 65.104 164.502 65.104C166.278 65.104 167.854 65.544 169.23 66.424C170.622 67.288 171.63 68.52 172.254 70.12H168.966C168.534 69.24 167.934 68.584 167.166 68.152C166.398 67.72 165.51 67.504 164.502 67.504C163.398 67.504 162.414 67.752 161.55 68.248C160.686 68.744 160.006 69.456 159.51 70.384C159.03 71.312 158.79 72.392 158.79 73.624C158.79 74.856 159.03 75.936 159.51 76.864C160.006 77.792 160.686 78.512 161.55 79.024C162.414 79.52 163.398 79.768 164.502 79.768C165.51 79.768 166.398 79.552 167.166 79.12C167.934 78.688 168.534 78.032 168.966 77.152H172.254C171.63 78.752 170.622 79.984 169.23 80.848C167.854 81.712 166.278 82.144 164.502 82.144C162.934 82.144 161.502 81.784 160.206 81.064C158.91 80.328 157.878 79.312 157.11 78.016C156.358 76.72 155.982 75.256 155.982 73.624ZM211.073 65.32V67.552H206.633V82H203.897V67.552H199.433V65.32H211.073ZM241.42 65.32V82H238.684V65.32H241.42ZM327.216 82H324.48L316.248 69.544V82H313.512V65.296H316.248L324.48 77.728V65.296H327.216V82Z" fill="#252A34"/>
<path d="M277.46 82.168C275.908 82.168 274.476 81.808 273.164 81.088C271.868 80.352 270.836 79.336 270.068 78.04C269.316 76.728 268.94 75.256 268.94 73.624C268.94 71.992 269.316 70.528 270.068 69.232C270.836 67.936 271.868 66.928 273.164 66.208C274.476 65.472 275.908 65.104 277.46 65.104C279.028 65.104 280.46 65.472 281.756 66.208C283.068 66.928 284.1 67.936 284.852 69.232C285.604 70.528 285.98 71.992 285.98 73.624C285.98 75.256 285.604 76.728 284.852 78.04C284.1 79.336 283.068 80.352 281.756 81.088C280.46 81.808 279.028 82.168 277.46 82.168ZM277.46 79.792C278.564 79.792 279.548 79.544 280.412 79.048C281.276 78.536 281.948 77.816 282.428 76.888C282.924 75.944 283.172 74.856 283.172 73.624C283.172 72.392 282.924 71.312 282.428 70.384C281.948 69.456 281.276 68.744 280.412 68.248C279.548 67.752 278.564 67.504 277.46 67.504C276.356 67.504 275.372 67.752 274.508 68.248C273.644 68.744 272.964 69.456 272.468 70.384C271.988 71.312 271.748 72.392 271.748 73.624C271.748 74.856 271.988 75.944 272.468 76.888C272.964 77.816 273.644 78.536 274.508 79.048C275.372 79.544 276.356 79.792 277.46 79.792Z" fill="#D9D9D9"/>
<path d="M270 82V77.2778C270 76.7583 270.184 76.3137 270.551 75.9438C270.918 75.5738 271.359 75.3889 271.875 75.3889H283.125C283.641 75.3889 284.082 75.5738 284.449 75.9438C284.816 76.3137 285 76.7583 285 77.2778V82H270ZM274.688 74.4444C273.391 74.4444 272.285 73.984 271.371 73.0632C270.457 72.1424 270 71.0287 270 69.7222C270 68.4157 270.457 67.3021 271.371 66.3813C272.285 65.4604 273.391 65 274.688 65H280.312C281.609 65 282.715 65.4604 283.629 66.3813C284.543 67.3021 285 68.4157 285 69.7222C285 71.0287 284.543 72.1424 283.629 73.0632C282.715 73.984 281.609 74.4444 280.312 74.4444H274.688ZM271.875 80.1111H283.125V77.2778H271.875V80.1111ZM274.688 72.5556H280.312C281.094 72.5556 281.758 72.2801 282.305 71.7292C282.852 71.1782 283.125 70.5093 283.125 69.7222C283.125 68.9352 282.852 68.2662 282.305 67.7153C281.758 67.1644 281.094 66.8889 280.312 66.8889H274.688C273.906 66.8889 273.242 67.1644 272.695 67.7153C272.148 68.2662 271.875 68.9352 271.875 69.7222C271.875 70.5093 272.148 71.1782 272.695 71.7292C273.242 72.2801 273.906 72.5556 274.688 72.5556ZM274.688 70.6667C274.953 70.6667 275.176 70.5762 275.355 70.3951C275.535 70.2141 275.625 69.9898 275.625 69.7222C275.625 69.4546 275.535 69.2303 275.355 69.0493C275.176 68.8683 274.953 68.7778 274.688 68.7778C274.422 68.7778 274.199 68.8683 274.02 69.0493C273.84 69.2303 273.75 69.4546 273.75 69.7222C273.75 69.9898 273.84 70.2141 274.02 70.3951C274.199 70.5762 274.422 70.6667 274.688 70.6667ZM280.312 70.6667C280.578 70.6667 280.801 70.5762 280.98 70.3951C281.16 70.2141 281.25 69.9898 281.25 69.7222C281.25 69.4546 281.16 69.2303 280.98 69.0493C280.801 68.8683 280.578 68.7778 280.312 68.7778C280.047 68.7778 279.824 68.8683 279.645 69.0493C279.465 69.2303 279.375 69.4546 279.375 69.7222C279.375 69.9898 279.465 70.2141 279.645 70.3951C279.824 70.5762 280.047 70.6667 280.312 70.6667Z" fill="#252A34"/>
</svg>
